<svg width="34" height="34" viewBox="0 0 34 34" fill="none" xmlns="http://www.w3.org/2000/svg">
<path d="M13.0743 26.966C11.7943 25.796 11.4206 23.3375 11.954 21.5564C12.8786 22.6793 14.1598 23.0351 15.4869 23.2359C17.5356 23.5457 19.5477 23.4298 21.4509 22.4934C21.6686 22.3862 21.8698 22.2437 22.1077 22.0993C22.2863 22.6174 22.3327 23.1404 22.2704 23.6728C22.1187 24.9692 21.4735 25.9707 20.4473 26.7299C20.0369 27.0336 19.6027 27.305 19.1789 27.5913C17.8769 28.4713 17.5247 29.5032 18.0139 31.0041C18.0255 31.0409 18.0359 31.0774 18.0622 31.1666C17.3974 30.869 16.9119 30.4358 16.5419 29.8662C16.1511 29.2652 15.9652 28.6002 15.9554 27.8807C15.9505 27.5306 15.9505 27.1773 15.9034 26.8321C15.7884 25.9906 15.3934 25.6138 14.6491 25.5921C13.8853 25.5698 13.281 26.042 13.1208 26.7857C13.1086 26.8427 13.0908 26.8991 13.0731 26.9654L13.0743 26.966Z" fill="#ADADAD"/>
<path d="M5.76904 21.2597C5.76904 21.2597 9.55933 19.4133 13.3602 19.4133L16.2259 10.5444C16.3332 10.1155 16.6465 9.824 17.0001 9.824C17.3538 9.824 17.6671 10.1155 17.7744 10.5444L20.6401 19.4133C25.1417 19.4133 28.2312 21.2597 28.2312 21.2597C28.2312 21.2597 21.7931 3.72106 21.7806 3.68587C21.5958 3.16734 21.2838 2.83337 20.8633 2.83337H13.1377C12.7171 2.83337 12.4178 3.16734 12.2204 3.68587C12.2065 3.7204 5.76904 21.2597 5.76904 21.2597Z" fill="#ADADAD"/>
</svg>
